# xmcd CD database file
#
# Track frame offsets:
#	150
#	18805
#	40111
#	50945
#	66485
#	89095
#	103575
#	117877
#	125568
#	143825
#	151756
#	166050
#	178735
#	194298
#	216763
#	230287
#
# Disc length: 3292 seconds
#
# Revision: 0
# Processed by: cddbd v1.5.2PL0 Copyright (c) Steve Scherf et al.
# Submitted via: CDex 1.70beta2
#
DISCID=de0cda10
DTITLE=Acrisa Laughing Wolf - Call Of The Elves
DYEAR=1998
DGENRE=New Age
TTITLE0=Queen of the Elves
TTITLE1=Call of the Elves
TTITLE2=Elf Children Play
TTITLE3=The Ancient Elf
TTITLE4=In Yo Call to the Soul
TTITLE5=Ancient Blessing
TTITLE6=La La La
TTITLE7=Laughing Turtle
TTITLE8=Korio Celebration March
TTITLE9=Celebration Blessings
TTITLE10=Elf Trance Port to Joy
TTITLE11=Hello Ma
TTITLE12=Ancient Mother
TTITLE13=Elf Mystery
TTITLE14=Harp Lullaby
TTITLE15=Oh Ma Lullaby
EXTD=YEAR: 1998
EXTT0=
EXTT1=
EXTT2=
EXTT3=
EXTT4=
EXTT5=
EXTT6=
EXTT7=
EXTT8=
EXTT9=
EXTT10=
EXTT11=
EXTT12=
EXTT13=
EXTT14=
EXTT15=
PLAYORDER=
